P3
3 3
15
5
5
5
0
0
15
0
0
0
0
0
0
0
15
0
0
0
0
5
5
5
0
0
15
0
0
0
